<svg width="136" height="33" viewBox="0 0 136 33" fill="none" xmlns="http://www.w3.org/2000/svg">
<g clip-path="url(#clip0_43_74)">
<path fill-rule="evenodd" clip-rule="evenodd" d="M5.73279 9.05605C7.9903 6.03192 11.6054 4.07269 15.6799 4.07269C19.7783 4.07269 23.4117 6.05504 25.6665 9.1095C25.5706 9.20779 25.4831 9.30964 25.4041 9.41137C24.991 9.94403 24.6803 10.6301 24.4313 11.3269C23.93 12.7282 23.5475 14.5586 23.1935 16.2726L23.162 16.4267C22.8087 18.1375 22.4804 19.7287 22.0834 20.9098C21.905 21.4405 21.7358 21.8156 21.5858 22.0559C21.4293 21.8137 21.2517 21.434 21.0638 20.8957C20.6391 19.6806 20.282 18.0279 19.9034 16.2632L19.8911 16.2055C19.5273 14.5104 19.1414 12.7119 18.6602 11.3352C18.4185 10.6437 18.1219 9.96446 17.7339 9.43674C17.3532 8.91883 16.7194 8.33434 15.7925 8.33434C14.8714 8.33434 14.2347 8.91249 13.8484 9.42459C13.453 9.94888 13.1447 10.6253 12.8907 11.3172C12.3793 12.7105 11.9611 14.533 11.572 16.2493L11.5318 16.4267C11.1464 18.1269 10.7862 19.7165 10.3773 20.8999C10.2212 21.3518 10.0739 21.6957 9.94053 21.9413C9.81022 21.6968 9.6666 21.3553 9.51474 20.9072C9.12244 19.7489 8.77878 18.2039 8.40969 16.5444L8.34509 16.254C7.96265 14.5365 7.54775 12.7107 7.02902 11.3131C6.77129 10.6186 6.45605 9.93883 6.0481 9.41206C5.95573 9.29283 5.85074 9.17181 5.73279 9.05605ZM4.36647 11.3781C4.47399 11.5895 4.58773 11.8516 4.70534 12.1685C5.15433 13.3783 5.53474 15.029 5.92646 16.7881L6.00268 17.1309C6.35935 18.736 6.73036 20.4057 7.16735 21.6956C7.39976 22.3818 7.68044 23.0537 8.04143 23.576C8.38279 24.0699 8.9952 24.7079 9.93688 24.7079C10.8758 24.7079 11.4897 24.073 11.8334 23.5813C12.1975 23.0602 12.4827 22.389 12.7199 21.7025C13.1744 20.387 13.5614 18.6782 13.9318 17.0428L13.9885 16.7928C14.3876 15.0326 14.7718 13.3785 15.2175 12.1644C15.424 11.6019 15.6173 11.21 15.7856 10.9669C15.9451 11.2079 16.1273 11.5935 16.3206 12.1464C16.7453 13.3615 17.1021 15.0142 17.4808 16.7789L17.4932 16.8367C17.8569 18.5317 18.2428 20.3302 18.724 21.7067C18.9658 22.3986 19.2624 23.0778 19.6503 23.6054C20.0311 24.1234 20.6648 24.7079 21.5916 24.7079C22.5233 24.7079 23.1547 24.1181 23.531 23.5954C23.9131 23.0652 24.2004 22.3837 24.4325 21.693C24.8786 20.3663 25.2334 18.6449 25.5714 17.0074L25.6201 16.7695C25.9841 15.007 26.3336 13.3608 26.7651 12.1547C26.8587 11.8923 26.9508 11.6686 27.0386 11.4807C27.6999 12.9901 28.0666 14.6568 28.0666 16.4088C28.0666 23.2218 22.521 28.7451 15.6799 28.7451C8.83881 28.7451 3.29303 23.2218 3.29303 16.4088C3.29303 14.617 3.67662 12.9144 4.36647 11.3781ZM15.6799 1.60547C7.47061 1.60547 0.815674 8.23318 0.815674 16.4088C0.815674 24.5845 7.47061 31.2122 15.6799 31.2122C23.8893 31.2122 30.5439 24.5845 30.5439 16.4088C30.5439 8.23318 23.8893 1.60547 15.6799 1.60547ZM15.9613 10.7619C15.9625 10.761 15.963 10.7605 15.963 10.7603C15.963 10.76 15.9601 10.7617 15.9544 10.7663C15.9575 10.7645 15.9598 10.763 15.9613 10.7619ZM15.6206 10.762C15.6149 10.7585 15.612 10.7561 15.612 10.7558C15.612 10.7555 15.6149 10.7572 15.6206 10.762ZM21.4033 22.2901C21.4033 22.2901 21.4059 22.2874 21.4113 22.284C21.4059 22.2885 21.4033 22.2905 21.4033 22.2901ZM21.7634 22.2801C21.7692 22.2836 21.7723 22.2859 21.7723 22.2863C21.7723 22.2866 21.7692 22.2847 21.7634 22.2801ZM9.68302 22.3122C9.68298 22.3119 9.68655 22.3084 9.69368 22.3034C9.68662 22.3099 9.68302 22.3126 9.68302 22.3122ZM10.1847 22.3057C10.1918 22.3107 10.1953 22.3141 10.1953 22.3145C10.1953 22.3149 10.1917 22.3126 10.1847 22.3057Z" fill="#FDFDF0"/>
<path d="M38.7513 25.1727L35.1467 12.8933H38.3041L40.4418 21.7314L42.9275 12.8933H46.4573L48.9434 21.7314L51.1061 12.8933H54.263L50.6339 25.1727H47.3277L44.6924 15.9879L42.0575 25.1727H38.7513Z" fill="#FDFDF0"/>
<path d="M58.8959 25.47C57.8353 25.47 56.9653 25.3046 56.2859 24.9745C55.6066 24.628 55.101 24.1742 54.7696 23.613C54.4382 23.0518 54.2725 22.4329 54.2725 21.7563C54.2725 20.6175 54.7197 19.6932 55.6147 18.9835C56.5096 18.2739 57.8521 17.919 59.642 17.919H62.774V17.6219C62.774 16.7802 62.5335 16.1613 62.0532 15.7652C61.5726 15.369 60.9757 15.171 60.2634 15.171C59.617 15.171 59.0536 15.3278 58.5729 15.6414C58.0923 15.9385 57.7938 16.3841 57.678 16.9782H54.5705C54.6538 16.087 54.9518 15.3113 55.4654 14.6511C55.9959 13.9909 56.6753 13.4875 57.5038 13.141C58.3328 12.7778 59.2607 12.5963 60.288 12.5963C62.0448 12.5963 63.4284 13.0337 64.4396 13.9084C65.4503 14.7831 65.9559 16.021 65.9559 17.6219V25.1728H63.2462L62.9482 23.1924C62.5834 23.8525 62.0697 24.3969 61.4069 24.8263C60.7605 25.2553 59.9235 25.47 58.8959 25.47ZM59.617 22.9941C60.5285 22.9941 61.2327 22.6969 61.7299 22.1028C62.2435 21.5088 62.5669 20.7742 62.6996 19.8995H59.9899C59.1445 19.8995 58.5399 20.0563 58.1751 20.3699C57.8107 20.667 57.6281 21.0385 57.6281 21.484C57.6281 21.9626 57.8107 22.334 58.1751 22.5979C58.5399 22.8619 59.0202 22.9941 59.617 22.9941Z" fill="#FDFDF0"/>
<path d="M70.9648 25.1727L66.4407 12.8933H69.7714L72.9038 22.1773L76.0358 12.8933H79.367L74.8179 25.1727H70.9648Z" fill="#FDFDF0"/>
<path d="M85.7633 25.47C84.5205 25.47 83.4184 25.2056 82.4572 24.6777C81.4963 24.1493 80.7421 23.4067 80.1951 22.4493C79.6481 21.4924 79.375 20.3864 79.375 19.1321C79.375 17.8612 79.6401 16.7307 80.1702 15.7404C80.7172 14.7501 81.4629 13.9827 82.4077 13.438C83.3686 12.8769 84.4956 12.5963 85.7883 12.5963C86.9981 12.5963 88.0672 12.8604 88.9951 13.3885C89.923 13.9167 90.6442 14.6428 91.1578 15.5671C91.6879 16.4748 91.9534 17.4899 91.9534 18.6122C91.9534 18.7937 91.9449 18.9835 91.9284 19.1816C91.9284 19.3797 91.92 19.5859 91.9035 19.8005H82.532C82.5983 20.7577 82.9297 21.5088 83.5262 22.0535C84.1392 22.5979 84.8769 22.8703 85.7388 22.8703C86.3848 22.8703 86.9237 22.7301 87.3545 22.4493C87.8017 22.1525 88.1332 21.7728 88.3488 21.3105H91.5805C91.3484 22.0864 90.9587 22.7962 90.4121 23.4399C89.8816 24.0668 89.2187 24.5619 88.4232 24.9252C87.6445 25.2881 86.7576 25.47 85.7633 25.47ZM85.7883 15.171C85.0096 15.171 84.3218 15.3938 83.7249 15.8394C83.1284 16.2685 82.7472 16.9287 82.5814 17.82H88.7216C88.6717 17.0112 88.3737 16.3676 87.8267 15.8889C87.2797 15.4103 86.6003 15.171 85.7883 15.171Z" fill="#FDFDF0"/>
<path d="M93.6353 25.1728V7.3479H96.8171V25.1728H93.6353Z" fill="#FDFDF0"/>
<path d="M105.065 25.47C103.822 25.47 102.72 25.2056 101.758 24.6777C100.798 24.1493 100.043 23.4067 99.4964 22.4493C98.9494 21.4924 98.6763 20.3864 98.6763 19.1321C98.6763 17.8612 98.9413 16.7307 99.4715 15.7404C100.018 14.7501 100.764 13.9827 101.709 13.438C102.67 12.8769 103.797 12.5963 105.09 12.5963C106.299 12.5963 107.368 12.8604 108.296 13.3885C109.224 13.9167 109.945 14.6428 110.459 15.5671C110.989 16.4748 111.255 17.4899 111.255 18.6122C111.255 18.7937 111.246 18.9835 111.23 19.1816C111.23 19.3797 111.221 19.5859 111.205 19.8005H101.833C101.9 20.7577 102.231 21.5088 102.827 22.0535C103.44 22.5979 104.178 22.8703 105.04 22.8703C105.686 22.8703 106.225 22.7301 106.656 22.4493C107.103 22.1525 107.434 21.7728 107.65 21.3105H110.882C110.65 22.0864 110.26 22.7962 109.713 23.4399C109.183 24.0668 108.52 24.5619 107.724 24.9252C106.946 25.2881 106.059 25.47 105.065 25.47ZM105.09 15.171C104.311 15.171 103.623 15.3938 103.026 15.8394C102.43 16.2685 102.048 16.9287 101.883 17.82H108.023C107.973 17.0112 107.675 16.3676 107.128 15.8889C106.581 15.4103 105.902 15.171 105.09 15.171Z" fill="#FDFDF0"/>
<path d="M118.032 25.47C116.939 25.47 115.978 25.2965 115.149 24.95C114.32 24.5867 113.657 24.0916 113.16 23.4644C112.663 22.8375 112.365 22.1112 112.265 21.2861H115.472C115.571 21.7644 115.837 22.1773 116.268 22.5238C116.715 22.8539 117.287 23.0189 117.983 23.0189C118.679 23.0189 119.184 22.8787 119.499 22.5979C119.83 22.3175 119.996 21.9955 119.996 21.6326C119.996 21.1042 119.764 20.7493 119.3 20.568C118.836 20.3699 118.19 20.1801 117.361 19.9986C116.831 19.883 116.292 19.7427 115.745 19.5777C115.198 19.4127 114.693 19.2063 114.229 18.9588C113.781 18.6947 113.417 18.3646 113.135 17.9685C112.854 17.5559 112.713 17.0525 112.713 16.4583C112.713 15.369 113.144 14.4531 114.006 13.7104C114.884 12.9676 116.11 12.5963 117.685 12.5963C119.143 12.5963 120.303 12.9346 121.164 13.6113C122.043 14.288 122.565 15.2205 122.731 16.4088H119.723C119.54 15.5011 118.853 15.0472 117.66 15.0472C117.063 15.0472 116.599 15.1627 116.268 15.3938C115.953 15.6249 115.795 15.9137 115.795 16.2603C115.795 16.6234 116.035 16.9122 116.516 17.1268C116.997 17.3413 117.635 17.5394 118.43 17.721C119.292 17.919 120.079 18.1418 120.792 18.3894C121.521 18.6204 122.101 18.9753 122.532 19.4539C122.963 19.916 123.178 20.5845 123.178 21.4591C123.195 22.2186 122.996 22.9032 122.581 23.514C122.167 24.1245 121.571 24.6032 120.792 24.95C120.013 25.2965 119.093 25.47 118.032 25.47Z" fill="#FDFDF0"/>
<path d="M130.098 25.47C129.005 25.47 128.043 25.2965 127.215 24.95C126.386 24.5867 125.723 24.0916 125.226 23.4644C124.729 22.8375 124.431 22.1112 124.331 21.2861H127.538C127.637 21.7644 127.903 22.1773 128.333 22.5238C128.781 22.8539 129.353 23.0189 130.049 23.0189C130.745 23.0189 131.25 22.8787 131.565 22.5979C131.897 22.3175 132.062 21.9955 132.062 21.6326C132.062 21.1042 131.83 20.7493 131.366 20.568C130.902 20.3699 130.256 20.1801 129.427 19.9986C128.897 19.883 128.358 19.7427 127.811 19.5777C127.265 19.4127 126.759 19.2063 126.295 18.9588C125.848 18.6947 125.483 18.3646 125.201 17.9685C124.919 17.5559 124.779 17.0525 124.779 16.4583C124.779 15.369 125.21 14.4531 126.071 13.7104C126.95 12.9676 128.176 12.5963 129.75 12.5963C131.209 12.5963 132.369 12.9346 133.231 13.6113C134.109 14.288 134.631 15.2205 134.796 16.4088H131.789C131.607 15.5011 130.919 15.0472 129.725 15.0472C129.129 15.0472 128.665 15.1627 128.333 15.3938C128.018 15.6249 127.861 15.9137 127.861 16.2603C127.861 16.6234 128.101 16.9122 128.582 17.1268C129.063 17.3413 129.7 17.5394 130.496 17.721C131.358 17.919 132.145 18.1418 132.858 18.3894C133.587 18.6204 134.167 18.9753 134.598 19.4539C135.029 19.916 135.244 20.5845 135.244 21.4591C135.261 22.2186 135.062 22.9032 134.648 23.514C134.233 24.1245 133.636 24.6032 132.858 24.95C132.079 25.2965 131.159 25.47 130.098 25.47Z" fill="#FDFDF0"/>
</g>
<defs>
<clipPath id="clip0_43_74">
<rect x="0.5" y="0.00231934" width="135" height="33" rx="16.5" fill="white"/>
</clipPath>
</defs>
</svg>
