<svg width="138" height="33" viewBox="0 0 138 33" fill="none" xmlns="http://www.w3.org/2000/svg">
<g clip-path="url(#clip0_43_103)">
<path d="M41.0468 8.34888C42.3545 8.34888 43.4864 8.56954 44.4425 9.01083C45.4126 9.45215 46.1577 10.0785 46.6778 10.8899C47.1982 11.7013 47.4584 12.6622 47.4584 13.7726C47.4584 14.8688 47.1982 15.8297 46.6778 16.6553C46.1577 17.4668 45.4126 18.0932 44.4425 18.5343C43.4864 18.9615 42.3545 19.1751 41.0468 19.1751H38.0731V23.2964H34.6567V8.34888H41.0468ZM40.8573 16.3564C41.8834 16.3564 42.664 16.1357 43.1981 15.6944C43.7326 15.2389 43.9994 14.5983 43.9994 13.7726C43.9994 12.9328 43.7326 12.2921 43.1981 11.8508C42.664 11.3953 41.8834 11.1675 40.8573 11.1675H38.0731V16.3564H40.8573Z" fill="#FDFDF0"/>
<path d="M51.7536 13.3241C52.147 12.7689 52.6745 12.349 53.3352 12.0643C54.0099 11.7795 54.7832 11.6372 55.6549 11.6372V14.7121C55.2895 14.6836 55.0434 14.6694 54.9168 14.6694C53.9748 14.6694 53.2367 14.9399 52.7026 15.4808C52.1681 16.0075 51.9009 16.8047 51.9009 17.8723V23.2963H48.6111V11.808H51.7536V13.3241Z" fill="#FDFDF0"/>
<path d="M62.2424 23.832C61.0476 23.832 59.972 23.5831 59.0159 23.0847C58.0739 22.5724 57.3358 21.8674 56.8014 20.9706C56.2672 20.0738 56 19.0559 56 17.9172C56 16.7783 56.2672 15.7605 56.8014 14.8637C57.3358 13.9668 58.0739 13.2693 59.0159 12.771C59.972 12.2585 61.0476 12.0023 62.2424 12.0023C63.4376 12.0023 64.5062 12.2585 65.4482 12.771C66.3902 13.2693 67.1283 13.9668 67.6627 14.8637C68.1969 15.7605 68.4641 16.7783 68.4641 17.9172C68.4641 19.0559 68.1969 20.0738 67.6627 20.9706C67.1283 21.8674 66.3902 22.5724 65.4482 23.0847C64.5062 23.5831 63.4376 23.832 62.2424 23.832ZM62.2424 21.0988C63.0863 21.0988 63.7752 20.814 64.3093 20.2447C64.8578 19.6612 65.1317 18.8851 65.1317 17.9172C65.1317 16.9492 64.8578 16.1805 64.3093 15.6111C63.7752 15.0274 63.0863 14.7356 62.2424 14.7356C61.3989 14.7356 60.703 15.0274 60.1548 15.6111C59.6063 16.1805 59.332 16.9492 59.332 17.9172C59.332 18.8851 59.6063 19.6612 60.1548 20.2447C60.703 20.814 61.3989 21.0988 62.2424 21.0988Z" fill="#FDFDF0"/>
<path d="M82.9906 8.34888V23.2964H80.1857L72.8251 14.221V23.2964H69.4509V8.34888H72.2769L79.6161 17.4241V8.34888H82.9906Z" fill="#FDFDF0"/>
<path d="M89.7733 11.6372C91.5307 11.6372 92.8803 12.0643 93.8223 12.9184C94.7643 13.7583 95.2355 15.0324 95.2355 16.7407V23.2963H92.1563V21.8655C91.5378 22.9332 90.3848 23.4669 88.6977 23.4669C87.826 23.4669 87.0665 23.3173 86.4199 23.0186C85.7873 22.7196 85.302 22.3069 84.9648 21.78C84.6273 21.2535 84.4585 20.6554 84.4585 19.9864C84.4585 18.9187 84.8523 18.0788 85.6396 17.4667C86.441 16.8546 87.6713 16.5485 89.3303 16.5485H91.9453C91.9453 15.8225 91.7277 15.2673 91.2916 14.8829C90.8556 14.4843 90.2019 14.285 89.3303 14.285C88.7258 14.285 88.1281 14.3847 87.5377 14.584C86.9614 14.769 86.4691 15.0253 86.0612 15.3527L84.8804 13.0252C85.499 12.5839 86.237 12.2422 87.0946 12.0002C87.9663 11.7582 88.8594 11.6372 89.7733 11.6372ZM89.5201 21.225C90.0824 21.225 90.5817 21.0968 91.0174 20.8405C91.4534 20.5699 91.7625 20.1786 91.9453 19.666V18.4915H89.6889C88.339 18.4915 87.6643 18.94 87.6643 19.8369C87.6643 20.2641 87.826 20.6055 88.1492 20.8619C88.4867 21.1039 88.9435 21.225 89.5201 21.225Z" fill="#FDFDF0"/>
<path d="M104.477 22.741C104.154 22.9831 103.753 23.1682 103.275 23.2964C102.811 23.41 102.319 23.4669 101.798 23.4669C100.449 23.4669 99.4013 23.1184 98.6562 22.4206C97.9248 21.7232 97.5595 20.6982 97.5595 19.346V14.6268H95.8091V12.0644H97.5595V9.26709H100.849V12.0644H103.675V14.6268H100.849V19.3033C100.849 19.7871 100.969 20.1645 101.208 20.4347C101.461 20.6911 101.812 20.8192 102.262 20.8192C102.783 20.8192 103.226 20.6768 103.591 20.3924L104.477 22.741Z" fill="#FDFDF0"/>
<path d="M116.7 11.8081V23.2964H113.578V21.9296C113.143 22.4277 112.622 22.8122 112.018 23.0828C111.413 23.3388 110.759 23.4669 110.056 23.4669C108.566 23.4669 107.385 23.0329 106.513 22.1646C105.641 21.2963 105.206 20.0078 105.206 18.2996V11.8081H108.496V17.8083C108.496 19.6589 109.262 20.5842 110.795 20.5842C111.582 20.5842 112.215 20.3283 112.693 19.8156C113.17 19.289 113.41 18.5129 113.41 17.4881V11.8081H116.7Z" fill="#FDFDF0"/>
<path d="M121.836 13.3241C122.229 12.7689 122.757 12.349 123.417 12.0643C124.092 11.7795 124.866 11.6372 125.737 11.6372V14.7121C125.372 14.6836 125.126 14.6694 124.999 14.6694C124.057 14.6694 123.319 14.9399 122.785 15.4808C122.25 16.0075 121.984 16.8047 121.984 17.8723V23.2963H118.693V11.808H121.836V13.3241Z" fill="#FDFDF0"/>
<path d="M137.65 17.5948C137.65 17.6374 137.629 17.9364 137.587 18.4915H129.004C129.158 19.2035 129.524 19.7657 130.1 20.1786C130.677 20.5913 131.394 20.7978 132.251 20.7978C132.842 20.7978 133.362 20.7123 133.812 20.5414C134.276 20.3567 134.705 20.0718 135.098 19.6873L136.849 21.6091C135.781 22.8477 134.22 23.4669 132.167 23.4669C130.888 23.4669 129.756 23.218 128.772 22.7196C127.787 22.2073 127.028 21.5023 126.494 20.6055C125.96 19.7087 125.692 18.6908 125.692 17.5521C125.692 16.4275 125.953 15.4168 126.473 14.5199C127.007 13.6089 127.731 12.9042 128.645 12.4059C129.573 11.8934 130.606 11.6372 131.745 11.6372C132.856 11.6372 133.861 11.8792 134.761 12.3632C135.661 12.8472 136.364 13.5448 136.87 14.4559C137.39 15.3527 137.65 16.399 137.65 17.5948ZM131.766 14.1569C131.021 14.1569 130.395 14.3704 129.889 14.7975C129.383 15.2246 129.074 15.8082 128.961 16.5485H134.55C134.438 15.8225 134.128 15.2459 133.622 14.8189C133.116 14.3776 132.497 14.1569 131.766 14.1569Z" fill="#FDFDF0"/>
<path fill-rule="evenodd" clip-rule="evenodd" d="M15.9204 0.0245292C15.4192 -0.269081 14.8011 -0.269081 14.2998 0.0245292C10.7393 2.10992 8.33788 6.01173 8.33788 10.4834C8.33788 11.1207 8.38669 11.7464 8.48064 12.357C6.0296 11.5142 3.3757 11.8209 1.20803 13.0856C0.706258 13.3783 0.397213 13.9203 0.397706 14.5066C0.400273 17.6 1.98737 20.6148 4.82978 22.2764C6.22422 23.0917 7.74623 23.479 9.24754 23.4797C9.01912 24.1348 8.89485 24.8401 8.89485 25.5746C8.89485 29.05 11.6774 31.8672 15.1099 31.8672C18.5425 31.8672 21.3249 29.05 21.3249 25.5746C21.3249 24.8383 21.2001 24.132 20.9709 23.4755C22.3826 23.4302 23.8046 23.0422 25.1141 22.2764C27.9566 20.6148 29.5435 17.6001 29.546 14.5068C29.5467 13.9204 29.2376 13.3785 28.7358 13.0857C26.6535 11.8709 24.1225 11.54 21.7539 12.2629C21.8387 11.6822 21.8823 11.088 21.8823 10.4834C21.8823 6.01173 19.481 2.10992 15.9204 0.0245292ZM11.5744 10.4834C11.5744 7.57961 12.963 5.0027 15.1101 3.39868C17.2573 5.0027 18.6459 7.57961 18.6459 10.4834C18.6459 13.3871 17.2573 15.9641 15.1101 17.5681C12.963 15.9641 11.5744 13.3871 11.5744 10.4834ZM21.4923 15.9251C22.9867 15.0515 24.7136 14.9498 26.222 15.5026C25.9407 17.1017 24.9903 18.5649 23.4959 19.4385C22.0015 20.3122 20.2746 20.4137 18.7662 19.8611C19.0475 18.2619 19.9979 16.7987 21.4923 15.9251ZM3.72187 15.5025C5.23028 14.9497 6.95704 15.0513 8.45149 15.9249C9.94597 16.7985 10.8963 18.2619 11.1777 19.8608C9.66924 20.4137 7.94248 20.3122 6.44803 19.4385C4.95358 18.5649 4.00324 17.1015 3.72187 15.5025ZM12.1314 25.5746C12.1314 23.9091 13.4649 22.5587 15.1099 22.5587C16.7549 22.5587 18.0886 23.9091 18.0886 25.5746C18.0886 27.24 16.7549 28.5904 15.1099 28.5904C13.4649 28.5904 12.1314 27.24 12.1314 25.5746Z" fill="#FDFDF0"/>
</g>
<defs>
<clipPath id="clip0_43_103">
<rect x="0.5" y="0.00231934" width="137" height="33" rx="16.5" fill="white"/>
</clipPath>
</defs>
</svg>
