<svg width="148" height="33" viewBox="0 0 148 33" fill="none" xmlns="http://www.w3.org/2000/svg">
<g clip-path="url(#clip0_43_63)">
<path d="M26.1738 27.3777V7.75391H29.635L38.5313 21.5745V7.75391H41.9924V27.3777H38.5313L29.635 13.585V27.3777H26.1738Z" fill="#FDFDF0"/>
<path d="M50.7456 27.7138C49.3935 27.7138 48.1948 27.4149 47.1493 26.8169C46.1037 26.2187 45.2835 25.3779 44.6885 24.2937C44.0935 23.2098 43.7961 21.9577 43.7961 20.5373C43.7961 19.0982 44.0845 17.818 44.6616 16.6966C45.2563 15.5753 46.0676 14.7062 47.0951 14.0895C48.1406 13.4541 49.3665 13.1364 50.7725 13.1364C52.0888 13.1364 53.2513 13.4354 54.2609 14.0334C55.2705 14.6315 56.0546 15.4538 56.6134 16.5004C57.1904 17.5283 57.4788 18.6777 57.4788 19.9486C57.4788 20.1542 57.4698 20.3691 57.4516 20.5933C57.4516 20.8176 57.4426 21.0512 57.4247 21.2941H47.2303C47.3024 22.3783 47.6629 23.2287 48.312 23.8452C48.9789 24.4621 49.7812 24.7703 50.7187 24.7703C51.4217 24.7703 52.0074 24.6116 52.4762 24.2937C52.9629 23.9575 53.3234 23.5276 53.5579 23.0041H57.0732C56.8207 23.8827 56.3971 24.6863 55.8021 25.4151C55.2253 26.1253 54.5044 26.686 53.639 27.0973C52.7918 27.5082 51.8273 27.7138 50.7456 27.7138ZM50.7725 16.0519C49.9254 16.0519 49.1772 16.3042 48.5283 16.8088C47.8792 17.2947 47.4646 18.0423 47.2845 19.0515H53.9635C53.9094 18.1357 53.5848 17.4068 52.9901 16.8648C52.3951 16.3229 51.6559 16.0519 50.7725 16.0519Z" fill="#FDFDF0"/>
<path d="M56.8428 27.3777L61.7099 20.4252L56.8428 13.4728H60.5474L63.9544 18.4067L67.3344 13.4728H71.066L66.1717 20.4252L71.066 27.3777H67.3344L63.9544 22.4437L60.5474 27.3777H56.8428Z" fill="#FDFDF0"/>
<path d="M77.8953 27.3776C76.489 27.3776 75.3624 27.0225 74.5149 26.3123C73.6678 25.6021 73.2442 24.3405 73.2442 22.5278V16.4724H70.9458V13.4728H73.2442L73.6498 9.74426H76.7053V13.4728H80.3288V16.4724H76.7053V22.5557C76.7053 23.2287 76.8405 23.6957 77.1109 23.9575C77.3993 24.2003 77.886 24.3219 78.5711 24.3219H80.2478V27.3776H77.8953Z" fill="#FDFDF0"/>
<path d="M81.9482 27.3776V13.4728H85.004L85.3014 15.351C85.7339 14.6782 86.302 14.1456 87.005 13.7531C87.726 13.3419 88.5552 13.1364 89.4927 13.1364C91.5658 13.1364 93.0349 13.968 93.9003 15.6314C94.387 14.8651 95.0359 14.2577 95.8472 13.8092C96.6764 13.3606 97.5777 13.1364 98.5512 13.1364C100.3 13.1364 101.643 13.6783 102.58 14.7623C103.518 15.8463 103.986 17.4349 103.986 19.5281V27.3776H100.525V19.8645C100.525 18.6684 100.3 17.7526 99.8492 17.1171C99.4166 16.4817 98.7405 16.164 97.8212 16.164C96.8837 16.164 96.1266 16.5191 95.5498 17.2293C94.991 17.9395 94.7116 18.93 94.7116 20.2009V27.3776H91.2502V19.8645C91.2502 18.6684 91.0249 17.7526 90.5744 17.1171C90.1236 16.4817 89.4296 16.164 88.4921 16.164C87.5728 16.164 86.8246 16.5191 86.2479 17.2293C85.689 17.9395 85.4096 18.93 85.4096 20.2009V27.3776H81.9482Z" fill="#FDFDF0"/>
<path d="M112.356 27.7138C111.058 27.7138 109.887 27.4056 108.841 26.7887C107.814 26.1721 106.993 25.3218 106.38 24.2378C105.785 23.135 105.488 21.8641 105.488 20.4251C105.488 18.9861 105.794 17.7245 106.407 16.6406C107.02 15.5379 107.841 14.6782 108.868 14.0615C109.914 13.4447 111.085 13.1364 112.383 13.1364C113.663 13.1364 114.817 13.4447 115.845 14.0615C116.89 14.6782 117.71 15.5379 118.305 16.6406C118.918 17.7245 119.225 18.9861 119.225 20.4251C119.225 21.8641 118.918 23.135 118.305 24.2378C117.71 25.3218 116.89 26.1721 115.845 26.7887C114.799 27.4056 113.636 27.7138 112.356 27.7138ZM112.356 24.6022C113.258 24.6022 114.042 24.2565 114.709 23.5649C115.376 22.8547 115.709 21.8082 115.709 20.4251C115.709 19.0421 115.376 18.0049 114.709 17.3134C114.042 16.6032 113.267 16.2481 112.383 16.2481C111.464 16.2481 110.671 16.6032 110.004 17.3134C109.355 18.0049 109.03 19.0421 109.03 20.4251C109.03 21.8082 109.355 22.8547 110.004 23.5649C110.671 24.2565 111.455 24.6022 112.356 24.6022Z" fill="#FDFDF0"/>
<path d="M123.931 27.3777L119.009 13.4728H122.633L126.04 23.9854L129.447 13.4728H133.07L128.122 27.3777H123.931Z" fill="#FDFDF0"/>
<path d="M139.758 27.7138C138.406 27.7138 137.207 27.4149 136.161 26.8169C135.116 26.2187 134.296 25.3779 133.701 24.2937C133.106 23.2098 132.808 21.9577 132.808 20.5373C132.808 19.0982 133.097 17.818 133.674 16.6966C134.269 15.5753 135.08 14.7062 136.107 14.0895C137.153 13.4541 138.379 13.1364 139.785 13.1364C141.101 13.1364 142.264 13.4354 143.273 14.0334C144.283 14.6315 145.067 15.4538 145.626 16.5004C146.203 17.5283 146.491 18.6777 146.491 19.9486C146.491 20.1542 146.482 20.3691 146.464 20.5933C146.464 20.8176 146.455 21.0512 146.437 21.2941H136.243C136.315 22.3783 136.675 23.2287 137.324 23.8452C137.991 24.4621 138.793 24.7703 139.731 24.7703C140.434 24.7703 141.02 24.6116 141.488 24.2937C141.975 23.9575 142.336 23.5276 142.57 23.0041H146.085C145.833 23.8827 145.409 24.6863 144.815 25.4151C144.238 26.1253 143.517 26.686 142.651 27.0973C141.804 27.5082 140.84 27.7138 139.758 27.7138ZM139.785 16.0519C138.938 16.0519 138.189 16.3042 137.541 16.8088C136.892 17.2947 136.477 18.0423 136.297 19.0515H142.976C142.922 18.1357 142.597 17.4068 142.002 16.8648C141.407 16.3229 140.668 16.0519 139.785 16.0519Z" fill="#FDFDF0"/>
<path d="M9.10649 7.37243V16.2436C9.10649 17.2561 8.31477 18.0769 7.3381 18.0769H-1.21874V14.4102H3.06409L-1.43579 9.74507L1.06508 7.15234L5.56972 11.8224V7.37243H9.10649Z" fill="#FDFDF0"/>
<path d="M19.5528 18.2026H10.9959C10.0193 18.2026 9.22754 19.0235 9.22754 20.036V28.907H12.7644V24.4667L17.2645 29.1321L19.7653 26.5395L15.2608 21.8692H19.5528V18.2026Z" fill="#FDFDF0"/>
</g>
<defs>
<clipPath id="clip0_43_63">
<rect width="148" height="33" fill="white" transform="translate(-0.5 0.00231934)"/>
</clipPath>
</defs>
</svg>
