<svg width="152" height="33" viewBox="0 0 152 33" fill="none" xmlns="http://www.w3.org/2000/svg">
<path d="M27.2517 21.2985C32.7109 18.163 39.618 20.1043 42.7479 25.6541L38.0376 28.4381C32.5535 31.6793 25.5394 29.7154 22.4304 24.0677L27.2517 21.2985Z" fill="white"/>
<path d="M25.2544 19.1002C28.3729 13.5705 35.2801 11.6759 40.6816 14.8685L37.8584 19.8749C34.7395 25.4046 27.8327 27.2993 22.4312 24.1065L25.2544 19.1002Z" fill="#FDFDF0" fill-opacity="0.7"/>
<path d="M22.1868 18.5647C22.1868 11.8581 27.4976 6.42139 34.0485 6.42139V12.0882C34.0485 18.7947 28.7377 24.2315 22.1868 24.2315V18.5647Z" fill="#FDFDF0" fill-opacity="0.7"/>
<path d="M19.3882 18.7955C16.2696 13.2658 18.1202 6.19494 23.522 3.00232L26.3453 8.00859C29.4641 13.5384 27.6133 20.6093 22.2117 23.8018L19.3882 18.7955Z" fill="#FDFDF0" fill-opacity="0.7"/>
<path d="M22.1869 17.7551C22.1869 11.4957 17.2303 6.42139 11.116 6.42139V12.8978C11.116 19.1573 16.0727 24.2315 22.1869 24.2315V17.7551Z" fill="#FDFDF0" fill-opacity="0.7"/>
<path d="M19.8038 19.1002C16.6853 13.5705 9.77809 11.6759 4.37646 14.8685L7.19985 19.8749C10.3185 25.4046 17.2255 27.2993 22.627 24.1065L19.8038 19.1002Z" fill="#FDFDF0" fill-opacity="0.7"/>
<path d="M17.8063 21.2985C12.3473 18.163 5.44012 20.1043 2.3103 25.6541L7.02046 28.4381C12.5047 31.6793 19.5189 29.7154 22.6279 24.0677L17.8063 21.2985Z" fill="white"/>
<path d="M62.8765 10.7794V23.3298H60.4176V15.1667L57.133 23.3298H55.2712L51.9692 15.1667V23.3298H49.5103V10.7794H52.303L56.2021 20.1114L60.1014 10.7794H62.8765Z" fill="white"/>
<path d="M65.8521 12.182C65.4188 12.182 65.0557 12.0441 64.763 11.7684C64.4821 11.4807 64.3416 11.1271 64.3416 10.7076C64.3416 10.288 64.4821 9.94041 64.763 9.66468C65.0557 9.377 65.4188 9.23315 65.8521 9.23315C66.2851 9.23315 66.6425 9.377 66.9233 9.66468C67.2161 9.94041 67.3624 10.288 67.3624 10.7076C67.3624 11.1271 67.2161 11.4807 66.9233 11.7684C66.6425 12.0441 66.2851 12.182 65.8521 12.182ZM67.0639 13.3687V23.3298H64.605V13.3687H67.0639Z" fill="white"/>
<path d="M74.183 13.2249C75.3423 13.2249 76.279 13.6024 76.9932 14.3576C77.7076 15.1008 78.0647 16.1437 78.0647 17.4863V23.3298H75.6058V17.8279C75.6058 17.0367 75.4124 16.4314 75.0261 16.0118C74.6398 15.5803 74.1129 15.3646 73.4454 15.3646C72.766 15.3646 72.2275 15.5803 71.8293 16.0118C71.443 16.4314 71.25 17.0367 71.25 17.8279V23.3298H68.7908V13.3687H71.25V14.6094C71.5777 14.1778 71.9934 13.8422 72.4968 13.6024C73.0121 13.3507 73.5741 13.2249 74.183 13.2249Z" fill="white"/>
<path d="M79.0681 18.3133C79.0681 17.3063 79.2614 16.4133 79.6478 15.6341C80.046 14.8549 80.5845 14.2556 81.2636 13.8361C81.9429 13.4165 82.6982 13.2067 83.5294 13.2067C84.1618 13.2067 84.7647 13.3506 85.3385 13.6383C85.9124 13.914 86.3689 14.2856 86.7085 14.7531V10.0242H89.2025V23.3297H86.7085V21.8554C86.4039 22.347 85.9767 22.7425 85.4263 23.0422C84.876 23.3418 84.2378 23.4917 83.5117 23.4917C82.6921 23.4917 81.9429 23.276 81.2636 22.8443C80.5845 22.4129 80.046 21.8076 79.6478 21.0285C79.2614 20.2371 79.0681 19.3322 79.0681 18.3133ZM86.7259 18.3492C86.7259 17.7379 86.6088 17.2164 86.3747 16.7849C86.1405 16.3413 85.8246 16.0057 85.4263 15.778C85.0281 15.5382 84.6009 15.4184 84.1442 15.4184C83.6874 15.4184 83.266 15.5322 82.8796 15.76C82.493 15.9877 82.1771 16.3234 81.931 16.7669C81.6968 17.1984 81.5798 17.7139 81.5798 18.3133C81.5798 18.9127 81.6968 19.4399 81.931 19.8956C82.1771 20.3389 82.493 20.6807 82.8796 20.9205C83.2776 21.1602 83.6993 21.2801 84.1442 21.2801C84.6009 21.2801 85.0281 21.1661 85.4263 20.9383C85.8246 20.6985 86.1405 20.3629 86.3747 19.9315C86.6088 19.488 86.7259 18.9604 86.7259 18.3492Z" fill="white"/>
<path d="M95.3627 15.4363H93.6591V23.3297H91.1649V15.4363H90.0586V13.3686H91.1649V12.8651C91.1649 11.6424 91.5045 10.7434 92.1836 10.168C92.863 9.59263 93.8875 9.32293 95.2575 9.35889V11.4806C94.6602 11.4686 94.2446 11.5705 94.0104 11.7863C93.7762 12.002 93.6591 12.3916 93.6591 12.955V13.3686H95.3627V15.4363Z" fill="white"/>
<path d="M105.44 13.3687V23.3298H102.963V22.0712C102.647 22.5029 102.231 22.8444 101.716 23.0963C101.213 23.336 100.662 23.4559 100.065 23.4559C99.304 23.4559 98.6308 23.2939 98.0453 22.9702C97.4599 22.6346 96.9973 22.1492 96.6576 21.514C96.3298 20.8666 96.1658 20.0993 96.1658 19.2124V13.3687H98.6247V18.8528C98.6247 19.6438 98.818 20.2553 99.2043 20.6867C99.591 21.1063 100.118 21.3161 100.785 21.3161C101.464 21.3161 101.997 21.1063 102.383 20.6867C102.77 20.2553 102.963 19.6438 102.963 18.8528V13.3687H105.44Z" fill="white"/>
<path d="M109.622 10.0242V23.3297H107.163V10.0242H109.622Z" fill="white"/>
<path d="M116.741 13.2249C117.9 13.2249 118.837 13.6024 119.551 14.3576C120.266 15.1008 120.623 16.1437 120.623 17.4863V23.3298H118.164V17.8279C118.164 17.0367 117.971 16.4314 117.584 16.0118C117.198 15.5803 116.671 15.3646 116.004 15.3646C115.324 15.3646 114.786 15.5803 114.387 16.0118C114.001 16.4314 113.808 17.0367 113.808 17.8279V23.3298H111.349V13.3687H113.808V14.6094C114.136 14.1778 114.551 13.8422 115.055 13.6024C115.57 13.3507 116.132 13.2249 116.741 13.2249Z" fill="white"/>
<path d="M131.304 18.1336C131.304 18.4932 131.281 18.8169 131.234 19.1044H124.12C124.179 19.8236 124.425 20.387 124.858 20.7947C125.291 21.2021 125.824 21.4059 126.456 21.4059C127.37 21.4059 128.02 21.0045 128.406 20.2013H131.058C130.777 21.1602 130.238 21.9513 129.442 22.5746C128.646 23.1861 127.668 23.4917 126.509 23.4917C125.572 23.4917 124.729 23.282 123.98 22.8624C123.242 22.4307 122.663 21.8255 122.241 21.0463C121.831 20.2672 121.626 19.3682 121.626 18.3493C121.626 17.3184 121.831 16.4133 122.241 15.6342C122.651 14.855 123.225 14.2557 123.962 13.8361C124.7 13.4166 125.549 13.2068 126.509 13.2068C127.434 13.2068 128.259 13.4106 128.986 13.8181C129.723 14.2257 130.291 14.8071 130.689 15.5623C131.099 16.3054 131.304 17.1625 131.304 18.1336ZM128.757 17.4142C128.746 16.767 128.517 16.2515 128.072 15.8679C127.627 15.4724 127.083 15.2746 126.439 15.2746C125.83 15.2746 125.315 15.4664 124.893 15.8499C124.483 16.2215 124.231 16.743 124.138 17.4142H128.757Z" fill="white"/>
<path d="M136.12 23.4917C135.324 23.4917 134.609 23.3478 133.977 23.06C133.345 22.7604 132.841 22.3589 132.467 21.8554C132.104 21.3519 131.904 20.7947 131.869 20.1832H134.346C134.393 20.5668 134.574 20.8846 134.891 21.1362C135.218 21.3881 135.622 21.5139 136.102 21.5139C136.571 21.5139 136.934 21.4181 137.191 21.2261C137.461 21.0344 137.595 20.7885 137.595 20.4888C137.595 20.1654 137.431 19.9257 137.103 19.7696C136.787 19.602 136.278 19.4222 135.575 19.2302C134.849 19.0504 134.252 18.8647 133.784 18.673C133.327 18.481 132.929 18.1873 132.59 17.7919C132.262 17.3963 132.098 16.8629 132.098 16.1916C132.098 15.6402 132.25 15.1367 132.555 14.6812C132.87 14.2257 133.316 13.8661 133.889 13.6024C134.475 13.3386 135.16 13.2068 135.944 13.2068C137.103 13.2068 138.028 13.5065 138.719 14.1058C139.41 14.6932 139.791 15.4903 139.861 16.4973H137.507C137.472 16.1017 137.308 15.79 137.016 15.5623C136.735 15.3225 136.354 15.2027 135.874 15.2027C135.429 15.2027 135.084 15.2866 134.838 15.4544C134.604 15.6222 134.487 15.8559 134.487 16.1556C134.487 16.4913 134.65 16.749 134.978 16.9288C135.306 17.0966 135.815 17.2704 136.506 17.4502C137.209 17.63 137.789 17.8158 138.245 18.0075C138.702 18.1994 139.094 18.4991 139.422 18.9068C139.761 19.3023 139.937 19.8295 139.949 20.4888C139.949 21.0644 139.791 21.5798 139.475 22.0352C139.17 22.4907 138.725 22.8503 138.14 23.114C137.566 23.3659 136.893 23.4917 136.12 23.4917Z" fill="white"/>
<path d="M144.988 23.4917C144.192 23.4917 143.478 23.3478 142.845 23.06C142.213 22.7604 141.71 22.3589 141.335 21.8554C140.972 21.3519 140.773 20.7947 140.738 20.1832H143.214C143.261 20.5668 143.443 20.8846 143.759 21.1362C144.087 21.3881 144.491 21.5139 144.971 21.5139C145.439 21.5139 145.802 21.4181 146.06 21.2261C146.329 21.0344 146.464 20.7885 146.464 20.4888C146.464 20.1654 146.3 19.9257 145.972 19.7696C145.656 19.602 145.146 19.4222 144.444 19.2302C143.718 19.0504 143.121 18.8647 142.652 18.673C142.196 18.481 141.797 18.1873 141.458 17.7919C141.13 17.3963 140.966 16.8629 140.966 16.1916C140.966 15.6402 141.118 15.1367 141.423 14.6812C141.739 14.2257 142.184 13.8661 142.758 13.6024C143.343 13.3386 144.028 13.2068 144.813 13.2068C145.972 13.2068 146.897 13.5065 147.588 14.1058C148.279 14.6932 148.659 15.4903 148.73 16.4973H146.376C146.341 16.1017 146.177 15.79 145.884 15.5623C145.603 15.3225 145.223 15.2027 144.742 15.2027C144.297 15.2027 143.952 15.2866 143.706 15.4544C143.472 15.6222 143.355 15.8559 143.355 16.1556C143.355 16.4913 143.519 16.749 143.847 16.9288C144.175 17.0966 144.684 17.2704 145.375 17.4502C146.077 17.63 146.657 17.8158 147.113 18.0075C147.57 18.1994 147.963 18.4991 148.29 18.9068C148.63 19.3023 148.805 19.8295 148.817 20.4888C148.817 21.0644 148.659 21.5798 148.343 22.0352C148.039 22.4907 147.594 22.8503 147.008 23.114C146.434 23.3659 145.761 23.4917 144.988 23.4917Z" fill="white"/>
</svg>
