<svg width="8" height="12" viewBox="0 0 8 12" fill="none" xmlns="http://www.w3.org/2000/svg">
<path d="M0.414033 9.61918e-08C0.331594 -5.92597e-05 0.251018 0.0273522 0.18264 0.0787189C0.114262 0.130086 0.061198 0.203066 0.0302542 0.2883C-0.000689555 0.373533 -0.00810272 0.467135 0.0089657 0.5571C0.0260341 0.647065 0.0668059 0.729292 0.126052 0.793235L2.97828 3.87695H0.414033C0.304295 3.87695 0.199052 3.92557 0.121456 4.01213C0.0438602 4.09868 0.000267197 4.21608 0.000267197 4.33849V8.21543C0.000267197 8.36005 0.0598494 8.48928 0.153636 8.5742L3.73574 11.8936C3.7962 11.9496 3.86969 11.9852 3.94763 11.9963C4.02557 12.0074 4.10472 11.9935 4.17584 11.9562C4.24696 11.919 4.30711 11.8599 4.34924 11.786C4.39137 11.712 4.41375 11.6262 4.41377 11.5385V8.67697H7.58597C7.66841 8.67703 7.74898 8.64962 7.81736 8.59825C7.88574 8.54689 7.9388 8.47391 7.96975 8.38867C8.00069 8.30344 8.0081 8.20984 7.99103 8.11987C7.97397 8.02991 7.93319 7.94768 7.87395 7.88374L5.02173 4.80003H7.58597C7.6957 4.80003 7.80095 4.7514 7.87854 4.66484C7.95614 4.57829 7.99973 4.46089 7.99973 4.33849V0.461541C7.99973 0.339133 7.95614 0.221738 7.87854 0.135182C7.80095 0.0486265 7.6957 9.61918e-08 7.58597 9.61918e-08H0.414033Z" fill="black"/>
</svg>
