<svg width="16" height="17" viewBox="0 0 16 17" fill="none" xmlns="http://www.w3.org/2000/svg">
  <rect y="0.626953" width="16" height="16" rx="8" fill="#3B442F"/>
  <path d="M8 3.62695C5.24 3.62695 3 5.86695 3 8.62695C3 10.837 4.43 12.707 6.42 13.377C6.67 13.427 6.76 13.267 6.76 13.137C6.76 13.017 6.76 12.707 6.75 12.337C5.36 12.637 5.07 11.667 5.07 11.667C4.84 11.087 4.51 10.937 4.51 10.937C4.06 10.627 4.54 10.637 4.54 10.637C5.04 10.677 5.3 11.157 5.3 11.157C5.74 11.917 6.46 11.697 6.74 11.577C6.78 11.257 6.91 11.037 7.05 10.917C5.94 10.797 4.77 10.367 4.77 8.44695C4.77 7.89695 4.97 7.44695 5.29 7.09695C5.24 6.96695 5.07 6.45695 5.34 5.77695C5.34 5.77695 5.76 5.63695 6.72 6.28695C7.12 6.17695 7.55 6.12695 7.98 6.12695C8.41 6.12695 8.84 6.17695 9.24 6.28695C10.2 5.63695 10.62 5.77695 10.62 5.77695C10.89 6.45695 10.72 6.96695 10.67 7.09695C10.99 7.44695 11.19 7.89695 11.19 8.44695C11.19 10.377 10.02 10.787 8.91 10.907C9.09 11.067 9.25 11.387 9.25 11.877C9.25 12.577 9.24 13.137 9.24 13.137C9.24 13.267 9.33 13.427 9.58 13.377C11.57 12.707 13 10.837 13 8.62695C13 5.86695 10.76 3.62695 8 3.62695Z" fill="white"/>
</svg>
