<svg width="16" height="17" viewBox="0 0 16 17" fill="none" xmlns="http://www.w3.org/2000/svg">
<path d="M11.3333 1.95996H4.66658C2.82564 1.95996 1.33325 3.45235 1.33325 5.29329V11.96C1.33325 13.8009 2.82564 15.2933 4.66658 15.2933H11.3333C13.1742 15.2933 14.6666 13.8009 14.6666 11.96V5.29329C14.6666 3.45235 13.1742 1.95996 11.3333 1.95996Z" fill="#3B442F"/>
<path d="M10.6666 8.20715C10.7488 8.76198 10.6541 9.32863 10.3957 9.8265C10.1374 10.3244 9.72865 10.7281 9.22764 10.9803C8.72662 11.2324 8.15885 11.3202 7.60508 11.2311C7.0513 11.142 6.53973 10.8805 6.14311 10.4839C5.7465 10.0873 5.48504 9.57574 5.39593 9.02196C5.30682 8.46819 5.3946 7.90042 5.64677 7.3994C5.89894 6.89839 6.30268 6.48965 6.80054 6.23132C7.29841 5.97298 7.86506 5.87821 8.41989 5.96049C8.98583 6.04441 9.50979 6.30813 9.91435 6.71269C10.3189 7.11725 10.5826 7.64121 10.6666 8.20715Z" stroke="white" stroke-width="1.6" stroke-linecap="round" stroke-linejoin="round"/>
<path d="M11.6667 4.95996H11.6734" stroke="white" stroke-width="1.6" stroke-linecap="round" stroke-linejoin="round"/>
</svg>
