<svg width="16" height="17" viewBox="0 0 16 17" fill="none" xmlns="http://www.w3.org/2000/svg">
<path d="M10.6667 5.95996C11.7276 5.95996 12.745 6.38139 13.4952 7.13153C14.2453 7.88168 14.6667 8.89909 14.6667 9.95996V14.6266H12.0001V9.95996C12.0001 9.60634 11.8596 9.2672 11.6096 9.01715C11.3595 8.7671 11.0204 8.62663 10.6667 8.62663C10.3131 8.62663 9.97399 8.7671 9.72394 9.01715C9.47389 9.2672 9.33341 9.60634 9.33341 9.95996V14.6266H6.66675V9.95996C6.66675 8.89909 7.08818 7.88168 7.83832 7.13153C8.58847 6.38139 9.60588 5.95996 10.6667 5.95996Z" fill="#3B442F"/>
<path d="M4.00016 6.62695H1.3335V14.627H4.00016V6.62695Z" fill="#3B442F"/>
<path d="M2.66659 5.95964C3.40296 5.95964 3.99992 5.36268 3.99992 4.6263C3.99992 3.88992 3.40296 3.29297 2.66659 3.29297C1.93021 3.29297 1.33325 3.88992 1.33325 4.6263C1.33325 5.36268 1.93021 5.95964 2.66659 5.95964Z" fill="#3B442F"/>
</svg>
