<svg width="201" height="36" viewBox="0 0 201 36" fill="none" xmlns="http://www.w3.org/2000/svg">
<path d="M36.0023 14.878H25.5397L32.9377 7.47999L28.5224 3.06461L21.1243 10.4626V0H14.878V10.4626L7.47999 3.06461L3.06461 7.47999L10.4626 14.878H0V21.1243H10.4626L3.06461 28.5224L7.47999 32.9377L14.878 25.5397V36.0023H21.1243V25.5397L28.5224 32.9377L32.9377 28.5224L25.5397 21.1243H36.0023V14.878Z" fill="#3B442F"/>
<path d="M40.8027 31.6792V4.32332H52.5106C58.4396 4.32332 62.3047 7.58802 62.3047 13.2919C62.3047 18.6955 58.7023 22.373 52.5106 22.373L46.6567 22.3354V31.6792H40.8027ZM51.535 9.27666H46.6567V17.7949L51.535 17.8324C54.1242 17.8324 56.3757 16.7817 56.3757 13.517C56.3757 10.2898 54.1242 9.27666 51.535 9.27666Z" fill="#3B442F"/>
<path d="M78.5745 32.017C70.319 32.017 64.8403 26.876 64.8403 17.9825C64.8403 9.08903 70.319 3.9856 78.5745 3.9856C86.8676 3.9856 92.3088 9.12656 92.3088 17.9825C92.3088 26.9135 86.8301 32.017 78.5745 32.017ZM78.5745 27.0261C83.3027 27.0261 86.3047 23.9866 86.3047 17.9825C86.3047 11.9785 83.2652 8.97645 78.5745 8.97645C73.8839 8.97645 70.8819 11.9785 70.8819 17.9825C70.8819 24.0241 73.8839 27.0261 78.5745 27.0261Z" fill="#3B442F"/>
<path d="M96.6142 31.6792V4.32332H110.123C116.503 4.32332 119.655 7.13772 119.655 12.1661C119.655 15.4308 117.854 17.9825 114.927 18.6955V18.9582C117.666 19.4835 118.979 21.1722 118.979 24.2492V28.5271C118.979 29.5403 118.979 30.6285 119.467 31.6792H113.576C113.238 31.0038 113.125 29.878 113.125 28.5271V25.2624C113.125 22.9358 112.262 21.6225 108.96 21.6225H102.468V31.6792H96.6142ZM102.468 16.9693H109.26C112.45 16.9693 113.688 15.2807 113.688 12.9541C113.688 10.2148 111.887 9.16408 109.26 9.16408H102.468V16.9693Z" fill="#3B442F"/>
<path d="M129.247 31.6792V9.38923H121.179V4.32332H143.318V9.38923H135.063V31.6792H129.247Z" fill="#3B442F"/>
<path d="M157.693 32.017C149.475 32.017 143.958 26.876 143.958 17.9825C143.958 9.12656 149.475 3.9856 157.693 3.9856C164.71 3.9856 169.701 7.88822 170.451 13.7422H164.522C163.847 10.9278 161.295 8.97645 157.693 8.97645C153.002 8.97645 150 11.9785 150 17.9825C150 24.0616 153.002 27.0261 157.693 27.0261C161.183 27.0261 163.922 25.1123 164.522 22.2229H170.451C169.776 28.1143 164.597 32.017 157.693 32.017Z" fill="#3B442F"/>
<path d="M187.266 32.017C179.01 32.017 173.532 26.876 173.532 17.9825C173.532 9.08903 179.01 3.9856 187.266 3.9856C195.559 3.9856 201 9.12656 201 17.9825C201 26.9135 195.521 32.017 187.266 32.017ZM187.266 27.0261C191.994 27.0261 194.996 23.9866 194.996 17.9825C194.996 11.9785 191.956 8.97645 187.266 8.97645C182.575 8.97645 179.573 11.9785 179.573 17.9825C179.573 24.0241 182.575 27.0261 187.266 27.0261Z" fill="#3B442F"/>
</svg>
