<svg width="140" height="33" viewBox="0 0 140 33" fill="none" xmlns="http://www.w3.org/2000/svg">
  <!-- PyTorch Flame/Torch Logo -->
  <g transform="translate(4, 3) scale(0.88)">
    <!-- Torch handle -->
    <rect x="11" y="18" width="4" height="8" rx="1.5" fill="#FDFDF0"/>
    <!-- Flame body -->
    <path d="M13 18 C13 18 6 13 8 7 C9 4 11 3 13 2 C11 5 12 8 14 9 C14 9 12 6 15 4 C17 7 16 11 14 13 C17 11 18 8 17 5 C20 8 20 13 16 16 C17 15 18 12 17 10 C19 13 18 17 13 18 Z" fill="#FDFDF0"/>
  </g>
  <!-- Tech Name -->
  <text x="34" y="22" font-family="system-ui, -apple-system, sans-serif" font-size="16" font-weight="600" fill="#FDFDF0" letter-spacing="0.5">PyTorch</text>
</svg>
