<svg width="130" height="33" viewBox="0 0 130 33" fill="none" xmlns="http://www.w3.org/2000/svg">
  <!-- Python Simplified Shape -->
  <g transform="translate(4, 4) scale(0.8)">
    <path d="M14.25 1.5C9.7 1.5 8.25 3.5 8.25 6.5H14.25V7.75H5.75C2.75 7.75 1.5 9.7 1.5 14.25C1.5 18.8 3.5 20.25 6.5 20.25H9.25V17.75C9.25 14.25 11.25 12.25 14.75 12.25H20.75V11C20.75 6.5 19.5 1.5 14.25 1.5ZM11.5 3.75C12.05 3.75 12.5 4.2 12.5 4.75C12.5 5.3 12.05 5.75 11.5 5.75C10.95 5.75 10.5 5.3 10.5 4.75C10.5 4.2 10.95 3.75 11.5 3.75Z" fill="#FDFDF0"/>
    <path d="M12.25 25C16.8 25 18.25 23 18.25 20H12.25V18.75H20.75C23.75 18.75 25 16.8 25 12.25C25 7.7 23 6.25 20 6.25H17.25V8.75C17.25 12.25 15.25 14.25 11.75 14.25H5.75V15.5C5.75 20 7 25 12.25 25ZM15 22.75C14.45 22.75 14 22.3 14 21.75C14 21.2 14.45 20.75 15 20.75C15.55 20.75 16 21.2 16 21.75C16 22.3 15.55 22.75 15 22.75Z" fill="#FDFDF0"/>
  </g>
  <text x="36" y="22" font-family="system-ui, -apple-system, sans-serif" font-size="16" font-weight="600" fill="#FDFDF0" letter-spacing="0.5">Python</text>
</svg>
